<?xml version="1.0" encoding="UTF-8"?> <!-- Generator: Adobe Illustrator 25.4.1, SVG Export Plug-In . SVG Version: 6.00 Build 0) --> <svg xmlns="http://www.w3.org/2000/svg" xmlns:xlink="http://www.w3.org/1999/xlink" version="1.1" id="Layer_1" x="0px" y="0px" viewBox="0 0 471.2 146" style="enable-background:new 0 0 471.2 146;" xml:space="preserve"> <style type="text/css"> .st0{fill:#F7A800;} .st1{fill:#116232;} .st2{enable-background:new ;} </style> <path class="st0" d="M374,127.9h60.5V63.5H374V127.9z M436,130.9h-63.5c-0.8,0-1.5-0.7-1.5-1.5V62c0-0.8,0.7-1.5,1.5-1.5H436 c0.8,0,1.5,0.7,1.5,1.5v67.4C437.5,130.3,436.8,130.9,436,130.9"></path> <path class="st1" d="M411.9,123.4c-0.5,1.3-0.6,1.5-2.3,1.5h-9.8c-1.7,0-1.8-0.2-2.3-1.5l-19.5-49c-0.4-0.8-0.7-1.7-0.8-2.6 c0-1.2,1.4-1.6,1.4-1.6l10-4c0.6-0.4,1.3-0.5,2-0.5c0.8,0.1,1,1.1,1.4,2.2l0.3,0.8l12.9,41.2h0.2l43.1-90.6c0.2-1,0.9-1.7,1.8-2.1 l4-1.7c0.5-0.2,1-0.2,1.5-0.1c0.5,0.2,0.3,0.8,0.1,1.3L411.9,123.4z"></path> <g class="st2"> <path class="st0" d="M10.5,125V82.8H2v-9.5h8.5v-3.8c0-10.8,7.1-15.9,17.3-15.9c1,0,3.3,0.1,7.5,0.4v10.6c-1.8-0.2-3.6-0.3-5.1-0.3 c-4.1,0-5.5,1.6-5.5,6v3h9.8v9.5h-9.8V125H10.5z"></path> <path class="st0" d="M54.9,73.3v29.3c0,7.9,2.1,12.6,9.1,12.6c7.8,0,11-4.5,11-14.7V73.3h14.2V125H75.7v-7.2h-0.3 c-3.6,5.8-9.6,8.6-15.9,8.6c-13.5,0-18.8-6.8-18.8-21V73.3H54.9z"></path> <path class="st0" d="M148.5,92.8V125h-14.2V95.7c0-8.5-2.5-12.6-9.1-12.6c-8.8,0-11,5.8-11,15V125H100V73.3h13.5v7.2h0.3 c3.4-5.5,9.2-8.6,15.9-8.6C142.8,71.9,148.5,78.3,148.5,92.8z"></path> <path class="st0" d="M209.7,53.6V125h-13.5v-6.6H196c-3.1,5.3-8.6,8-15.7,8c-15.4,0-23.2-13-23.2-27.7c0-14.3,8-26.8,22.9-26.8 c6.2,0,12.2,2.7,15.3,7.7h0.2v-26H209.7z M183.8,115.7c8.1,0,12.2-6.3,12.2-16.7c0-9.4-3.6-16.4-12.3-16.4 c-8.1,0-12.4,6.5-12.4,16.5C171.3,107.3,175.1,115.7,183.8,115.7z"></path> </g> <g class="st2"> <path class="st1" d="M264.4,88.4h-13.5c-0.4-5-3.8-7-9.7-7c-5.5,0-7.9,1.7-7.9,4.8c0,3.3,3.1,5,11.1,6.6 c10.5,2.1,14.3,3.7,17.4,6.3c2.7,2.4,4,5.4,4,9.3c0,13.3-11.5,18-23.6,18c-14.1,0-23.9-6-24.3-18.2h13.5c0,5.8,5,8.7,10.9,8.7 c4.8,0,9.3-2.1,9.3-6.6c0-3.8-4.4-5.6-15.6-7.9c-12-2.5-16.9-6.5-16.9-13.9c0-11,8-16.6,22.5-16.6 C255.6,71.9,263.5,77.7,264.4,88.4z"></path> <path class="st1" d="M323.2,100c0,0.8-0.1,2.6-0.1,2.6h-37.3c0.4,8.9,4.5,13.1,12.6,13.1c5.4,0,10.2-3.1,11.3-6.7h12.5 c-3.8,11.7-11.8,17.4-24.2,17.4c-16.4,0-26.4-11.3-26.4-27.2c0-15.6,10.8-27.3,26.4-27.3C314.3,71.9,323.2,84.7,323.2,100z M308.9,93.6c-1.4-7.8-4.8-11-11.4-11c-6.9,0-11.1,4.2-11.7,11H308.9z"></path> <path class="st1" d="M364.8,72.4v13.2c-1.4-0.3-3.1-0.5-5.1-0.5c-10.3,0-14,7.1-14,16.6V125h-14.2V73.3H345v9.6h0.2 c2.7-6.5,9.4-11,16.5-11C363.1,71.9,364.1,72.2,364.8,72.4z"></path> </g> </svg> 